<svg width="16" height="23" viewBox="0 0 16 23" fill="none" xmlns="http://www.w3.org/2000/svg">
<path d="M14.6641 10.9256L8.67019 7.70521V6.64266H12.2638V7.855H13.5998V5.56606L12.2638 4.62053L8.67019 2.07883V0.375H7.33426V2.07415L3.73615 4.62053L2.40022 5.56606V7.855H3.73615V6.64266H7.33426V7.70053L1.33593 10.9256L0 11.6418V13.9916H1.33593V12.7746H2.40022V13.9916H3.73615V12.7746H7.33426V20.9707H6.29223V22.375H9.71222V20.9707H8.67019V12.7746H12.2683V13.9916H13.6042V12.7746H14.6685V13.9916H16.0045V11.6418L14.6685 10.9256H14.6641ZM8.67019 3.76862L10.7453 5.2384H8.67019V3.76862ZM5.25466 5.2384L7.33426 3.76394V5.2384H5.25466ZM3.44225 11.3703L7.33426 9.27798V11.3703H3.44225ZM8.67019 9.28266L12.5578 11.3703H8.67019V9.28266Z" fill="#707070"/>
</svg>
